# WaveFront *.obj file (generated by Autodesk ATF)

mtllib coin hatch.mtl

g Body159

v 416.350000 -42.766582 25.557873
v 406.116888 -42.766582 25.557873
v 406.116888 -42.679427 26.554068
v 416.350000 -42.679427 26.554068
v 416.350000 -52.960643 26.449738
v 416.350000 -52.873487 27.445932
v 406.116888 -52.960643 26.449738
v 406.116888 -52.873487 27.445932
vt 0.000000 0.000000 0.000000
vt 1.023311 0.000000 0.000000
vt 0.000000 0.100000 0.000000
vt 1.023311 0.100000 0.000000
vt 0.000000 0.000000 0.000000
vt 1.023300 0.000000 0.000000
vt -0.000000 0.100000 0.000000
vt 1.023300 0.100000 0.000000
vt 0.000000 0.000000 0.000000
vt 1.023311 0.000000 0.000000
vt 0.000000 0.100000 0.000000
vt 1.023311 0.100000 0.000000
vt 0.000000 0.000000 0.000000
vt 1.023300 -0.000000 0.000000
vt -0.000000 0.100000 0.000000
vt 1.023300 0.100000 0.000000
vt -0.511656 -0.511650 0.000000
vt 0.511656 -0.511650 0.000000
vt -0.511656 0.511650 0.000000
vt 0.511656 0.511650 0.000000
vt 0.511656 0.511650 0.000000
vt -0.511656 0.511650 0.000000
vt 0.511656 -0.511650 0.000000
vt -0.511656 -0.511650 0.000000
vn 0.000000 0.099619 -0.008716
vn 0.000000 0.099619 -0.008716
vn 0.000000 0.099619 -0.008716
vn 0.000000 0.099619 -0.008716
vn 0.100000 0.000000 0.000000
vn 0.100000 0.000000 0.000000
vn 0.100000 0.000000 0.000000
vn 0.100000 0.000000 0.000000
vn 0.000000 -0.099619 0.008716
vn 0.000000 -0.099619 0.008716
vn 0.000000 -0.099619 0.008716
vn 0.000000 -0.099619 0.008716
vn -0.100000 0.000000 0.000000
vn -0.100000 0.000000 0.000000
vn -0.100000 0.000000 0.000000
vn -0.100000 0.000000 0.000000
vn 0.000000 0.008716 0.099619
vn 0.000000 0.008716 0.099619
vn 0.000000 0.008716 0.099619
vn 0.000000 0.008716 0.099619
vn 0.000000 -0.008716 -0.099619
vn 0.000000 -0.008716 -0.099619
vn 0.000000 -0.008716 -0.099619
vn 0.000000 -0.008716 -0.099619
usemtl Steel_-_Satin
f 1/1/1 2/2/2 4/3/3
f 4/3/3 2/2/2 3/4/4
f 5/5/5 1/6/6 6/7/7
f 6/7/7 1/6/6 4/8/8
f 7/9/9 5/10/10 8/11/11
f 8/11/11 5/10/10 6/12/12
f 2/13/13 7/14/14 3/15/15
f 3/15/15 7/14/14 8/16/16
f 8/17/17 6/18/18 3/19/19
f 3/19/19 6/18/18 4/20/20
f 2/21/21 1/22/22 7/23/23
f 7/23/23 1/22/22 5/24/24
# 8 vertices
# 24 texture params
# 24 normals
# 12 facets

# 1 groups
